<svg width="42" height="57" viewBox="0 0 42 57" fill="none" xmlns="http://www.w3.org/2000/svg">
<path d="M14.3125 46.4297L1.30469 5.92188C1.07031 5.375 0.953125 4.78906 0.953125 4.16406C0.953125 3.51302 1.17448 2.92708 1.61719 2.40625C2.08594 1.88542 2.64583 1.49479 3.29688 1.23438C3.94792 0.973958 4.5599 0.778646 5.13281 0.648438C5.70573 0.492188 6.17448 0.414062 6.53906 0.414062C7.6849 0.414062 8.45312 1.05208 8.84375 2.32812L19.2734 36.5078C19.7422 38.0443 19.9766 39.151 19.9766 39.8281C19.9766 41.1302 19.5469 42.849 18.6875 44.9844C17.8281 47.1198 16.9297 48.1875 15.9922 48.1875C15.263 48.1875 14.7031 47.6016 14.3125 46.4297ZM40.8359 3.10938L27.0078 49.2031C26.6693 50.0625 26.4089 50.6875 26.2266 51.0781C26.0703 51.4688 25.7578 52.0156 25.2891 52.7188C24.8203 53.3958 24.2995 53.9297 23.7266 54.3203C22.8672 54.9193 22.0208 55.4141 21.1875 55.8047C20.3542 56.1953 19.7552 56.3906 19.3906 56.3906C18.6615 56.3906 18.2969 56 18.2969 55.2188C18.2969 54.9062 18.5573 53.8776 19.0781 52.1328L32.5938 6.625C33.0365 5.16667 34.026 3.77344 35.5625 2.44531C37.099 1.09115 38.5443 0.414062 39.8984 0.414062C40.6797 0.414062 41.0703 0.804688 41.0703 1.58594C41.0703 2.05469 40.9922 2.5625 40.8359 3.10938Z" fill="#EFEFEF"/>
</svg>
